<?xml version="1.0" encoding="utf-8" ?>
<svg baseProfile="tiny" height="100%" version="1.2" width="100%" xmlns="http://www.w3.org/2000/svg" xmlns:ev="http://www.w3.org/2001/xml-events" xmlns:xlink="http://www.w3.org/1999/xlink"><defs /><polyline fill="black" points="330.7407,196.4705 306.4669,192.0489 284.4371,186.1201 255.147,186.2172 225.5305,186.1982 196.9851,185.1498 168.972,183.534 143.2936,179.7081 118.2588,175.0078 95.0681,168.8111 71.6216,162.3187 50.8801,154.0456 29.535,144.5924 25.2665,128.8389 32.4476,114.1978 30.6992,96.132 23.3565,73.3291 15.4686,51.2237 11.8405,30.6889 34.8958,28.6791 50.1524,43.9733 61.6293,61.6965 74.7427,78.4623 89.0598,93.6313 106.7725,105.867 131.4763,109.3692 159.6629,107.0083 188.1277,106.3471 216.7963,105.1093 245.9487,104.8325 275.5808,104.7475 305.2658,104.8578 334.7759,104.7371 364.5356,104.8733 394.0083,104.6986 423.1554,105.5146 450.7646,107.0835 477.6471,110.2789 501.6916,115.2141 523.597,123.5894 540.5174,135.2466 552.494,153.7031 541.3999,169.826 517.7589,175.5396 491.9318,179.7043 464.8139,181.6791 436.5071,183.5655 408.3873,184.3859 378.6042,184.9889 351.8848,187.0691" stroke="none" /></svg>